<svg width="236" height="218" viewBox="0 0 236 218" fill="none" xmlns="http://www.w3.org/2000/svg">
<rect x="0.93612" y="0.93612" width="215.991" height="215.988" rx="107.994" fill="#0E101C"/>
<rect x="0.93612" y="0.93612" width="215.991" height="215.988" rx="107.994" stroke="#FFD65B" stroke-width="1.87224"/>
<path d="M76.4102 129.472C76.4102 119.687 80.3486 110.304 87.3592 103.385C94.3697 96.4669 103.878 92.5801 113.792 92.5801C123.707 92.5801 133.215 96.4669 140.226 103.385C147.236 110.304 151.175 119.687 151.175 129.472C151.131 131.816 150.889 134.152 150.45 136.456H91.4735C92.9641 141.139 95.933 145.229 99.9464 148.128C103.96 151.027 108.808 152.584 113.781 152.571C120.032 152.529 126.021 150.087 130.479 145.763H147.366C143.634 153.236 137.45 159.243 129.819 162.808C122.189 166.373 113.561 167.285 105.339 165.397C97.1165 163.51 89.7829 158.932 84.5307 152.41C79.2785 145.887 76.4165 137.803 76.4102 129.472ZM91.4679 122.664H136.084C134.548 118.007 131.568 113.946 127.565 111.054C123.561 108.162 118.737 106.585 113.776 106.549C108.803 106.536 103.956 108.093 99.9433 110.992C95.9309 113.891 92.963 117.981 91.4735 122.664H91.4679Z" fill="#FFD65B"/>
<path d="M52.9632 98.5537L52.1601 122.473C52.7966 122.85 53.3254 123.381 53.6969 124.015C54.0684 124.649 54.2703 125.367 54.2837 126.099C54.2971 126.832 54.1215 127.555 53.7734 128.203C53.4254 128.85 52.9163 129.399 52.294 129.798L57.5251 137.724C49.907 145.148 42.0547 137.454 42.0547 137.454L47.1799 129.749L47.2134 129.589C46.5783 129.102 46.0915 128.452 45.8063 127.71C45.5211 126.968 45.4486 126.163 45.5966 125.382C45.7447 124.602 46.1077 123.877 46.6457 123.288C47.1837 122.698 47.876 122.265 48.6466 122.038L49.0872 96.9355" fill="#FFD65B"/>
<path d="M49.851 98.8138L32.5625 99.5513L86.8653 50.0176L160.91 57.8769L129.774 75.3734C117.12 69.9577 97.6121 78.1638 97.6121 78.1638C116.15 74.4157 128.441 79.2645 128.441 79.2645L133.02 93.0074C133.02 93.0074 119.396 82.0329 99.9432 88.3182C80.4908 94.6035 75.3545 112.083 75.3545 112.083L70.7144 98.1424L54.1063 98.7918" fill="#FFD65B"/>
<path d="M215.566 71.5958H235.464V99.4436H215.566C216.084 106.445 216.81 119.203 215.566 114.224C214.321 109.246 208.564 100.999 196.895 100.222H164.684V71.7539H184.29V47.1875H215.566V71.5958Z" fill="#FFD65B"/>
</svg>
