<svg width="898" height="245" viewBox="0 0 898 245" fill="none" xmlns="http://www.w3.org/2000/svg">
<g clip-path="url(#clip0_7247_2)">
<path d="M78.293 90.0918C78.293 81.7797 81.5949 73.808 87.4725 67.9305C93.35 62.053 101.322 58.751 109.634 58.751C117.946 58.751 125.918 62.053 131.795 67.9305C137.673 73.808 140.975 81.7797 140.975 90.0918C140.938 92.0831 140.735 94.0678 140.367 96.0252H90.9219C92.1715 100.003 94.6606 103.478 98.0254 105.941C101.39 108.404 105.454 109.727 109.624 109.715C114.865 109.68 119.886 107.605 123.623 103.932H137.781C134.652 110.28 129.468 115.384 123.071 118.412C116.674 121.44 109.44 122.216 102.546 120.612C95.6529 119.008 89.5045 115.12 85.1011 109.578C80.6977 104.037 78.2983 97.1695 78.293 90.0918ZM90.9172 84.308H128.322C127.035 80.3525 124.537 76.902 121.18 74.445C117.824 71.988 113.779 70.6491 109.62 70.6178C105.45 70.6069 101.387 71.9296 98.0229 74.3927C94.6588 76.8558 92.1707 80.3301 90.9219 84.308H90.9172Z" fill="black"/>
<path d="M150.078 90.0918C150.089 84.1876 151.764 78.4061 154.912 73.4109C158.06 68.4158 162.552 64.4094 167.874 61.8517C173.195 59.294 179.13 58.2886 184.997 58.9509C190.864 59.6132 196.425 61.9164 201.043 65.5961V27.4102H212.778V90.0918C212.778 98.4039 209.476 106.376 203.599 112.253C197.721 118.131 189.75 121.433 181.438 121.433C173.125 121.433 165.154 118.131 159.276 112.253C153.399 106.376 150.097 98.4039 150.097 90.0918H150.078ZM161.795 90.0918C161.795 93.9758 162.947 97.7725 165.105 101.002C167.263 104.231 170.33 106.748 173.918 108.235C177.506 109.721 181.455 110.11 185.264 109.352C189.073 108.594 192.572 106.724 195.319 103.978C198.065 101.231 199.936 97.7322 200.693 93.9229C201.451 90.1136 201.062 86.1651 199.576 82.5768C198.089 78.9884 195.572 75.9215 192.343 73.7636C189.114 71.6058 185.317 70.4541 181.433 70.4541C176.231 70.4677 171.245 72.5416 167.569 76.222C163.892 79.9024 161.823 84.8894 161.814 90.0918H161.795Z" fill="black"/>
<path d="M272.865 58.751H284.582V90.0778C284.582 98.3899 281.28 106.362 275.403 112.239C269.525 118.117 261.553 121.419 253.241 121.419C244.929 121.419 236.958 118.117 231.08 112.239C225.202 106.362 221.9 98.3899 221.9 90.0778V58.751H233.59V90.0778C233.59 95.286 235.659 100.281 239.341 103.964C243.024 107.646 248.019 109.715 253.227 109.715C258.436 109.715 263.43 107.646 267.113 103.964C270.796 100.281 272.865 95.286 272.865 90.0778V58.751Z" fill="black"/>
<path d="M356.376 90.0992C356.364 96.003 354.688 101.784 351.54 106.778C348.392 111.773 343.9 115.779 338.578 118.336C333.257 120.893 327.323 121.898 321.456 121.235C315.59 120.573 310.029 118.27 305.412 114.59V152.79L293.699 144.589V90.0992C293.699 81.7877 297.001 73.8167 302.878 67.9396C308.755 62.0625 316.726 58.7607 325.038 58.7607C333.349 58.7607 341.32 62.0625 347.197 67.9396C353.074 73.8167 356.376 81.7877 356.376 90.0992ZM344.664 90.0992C344.664 86.2153 343.512 82.4185 341.354 79.1891C339.196 75.9597 336.129 73.4427 332.541 71.9564C328.953 70.47 325.004 70.0811 321.195 70.8389C317.386 71.5966 313.886 73.4669 311.14 76.2133C308.394 78.9597 306.523 82.4588 305.766 86.2681C305.008 90.0774 305.397 94.0259 306.883 97.6142C308.369 101.203 310.887 104.27 314.116 106.427C317.345 108.585 321.142 109.737 325.026 109.737C327.609 109.75 330.168 109.251 332.556 108.269C334.945 107.286 337.115 105.84 338.941 104.014C340.767 102.188 342.213 100.018 343.195 97.6296C344.178 95.2412 344.677 92.6817 344.664 90.0992Z" fill="black"/>
<path d="M428.189 90.1012C428.189 96.2971 426.351 102.354 422.909 107.505C419.467 112.657 414.574 116.672 408.85 119.043C403.126 121.414 396.827 122.035 390.75 120.826C384.674 119.617 379.092 116.634 374.711 112.253C370.329 107.871 367.346 102.29 366.137 96.2128C364.928 90.136 365.549 83.8372 367.92 78.113C370.291 72.3887 374.306 67.4962 379.458 64.0539C384.609 60.6117 390.666 58.7744 396.862 58.7744C405.165 58.7917 413.123 62.0978 418.994 67.9689C424.865 73.8401 428.171 81.7981 428.189 90.1012ZM416.5 90.1012C416.533 86.2102 415.41 82.3971 413.272 79.1456C411.135 75.8941 408.08 73.351 404.494 71.8388C400.909 70.3266 396.955 69.9136 393.135 70.6522C389.315 71.3908 385.8 73.2477 383.037 75.9873C380.273 78.7269 378.386 82.2256 377.615 86.0394C376.843 89.8533 377.222 93.8104 378.704 97.4085C380.185 101.007 382.702 104.084 385.935 106.249C389.167 108.414 392.971 109.57 396.862 109.571C402.034 109.555 406.992 107.503 410.663 103.859C414.334 100.216 416.422 95.2731 416.476 90.1012H416.5Z" fill="black"/>
<path d="M468.642 58.7607V70.4732C466.073 70.4824 463.531 70.9978 461.162 71.99C458.793 72.9821 456.643 74.4316 454.834 76.2554C453.025 78.0792 451.594 80.2417 450.622 82.6191C449.649 84.9966 449.155 87.5424 449.168 90.1109V121.438H437.301V90.1109C437.312 81.8014 440.617 73.8352 446.492 67.9586C452.367 62.082 460.332 58.7743 468.642 58.7607Z" fill="black"/>
<path d="M58.6456 63.8356L57.9723 84.1559C58.5059 84.4763 58.9492 84.9271 59.2607 85.466C59.5721 86.0049 59.7414 86.6141 59.7526 87.2365C59.7639 87.8588 59.6166 88.4737 59.3248 89.0235C59.033 89.5732 58.6062 90.0398 58.0845 90.3792L62.4702 97.1121C56.0833 103.42 49.5 96.883 49.5 96.883L53.7969 90.3371L53.825 90.2015C53.2926 89.7878 52.8844 89.2354 52.6453 88.6049C52.4062 87.9745 52.3454 87.2903 52.4695 86.6276C52.5937 85.9648 52.898 85.3491 53.349 84.8479C53.8001 84.3468 54.3805 83.9795 55.0266 83.7865L55.396 62.4609" fill="black"/>
<path d="M499.695 58.7506H519.332V70.4631H499.695V121.428H488.005V70.4631H476.293V58.7506H488.005V27.4238H499.695V58.7506Z" fill="black"/>
<path d="M56.0375 64.0558L41.543 64.6823L87.0697 22.6016L149.148 29.2784L123.044 44.1422C112.435 39.5414 96.0796 46.5128 96.0796 46.5128C111.621 43.3287 121.927 47.4479 121.927 47.4479L125.765 59.123C125.765 59.123 114.343 49.7998 98.0341 55.1393C81.7254 60.4789 77.4192 75.3288 77.4192 75.3288L73.529 63.4854L59.605 64.0371" fill="black"/>
</g>
<rect x="537.347" y="30.0863" width="318.596" height="115.218" rx="57.6088" fill="#0E101C"/>
<rect x="537.347" y="30.0863" width="318.596" height="115.218" rx="57.6088" stroke="#FFFAB1" stroke-width="0.998733"/>
<path d="M599.183 120.758C594.167 120.758 590.102 116.693 590.102 111.677V65.7693C590.102 55.8408 598.15 47.7921 608.079 47.7921H623.983C640.02 47.7921 651.703 58.0945 651.703 72.8577C651.703 87.6208 640.02 97.9232 623.983 97.9232H619.681C613.375 97.9232 608.263 103.035 608.263 109.341V111.677C608.263 116.693 604.198 120.758 599.183 120.758ZM608.263 72.8577C608.263 77.5503 612.068 81.3545 616.76 81.3545H622.283C628.55 81.3545 633.01 77.9557 633.01 72.8577C633.01 67.7596 628.55 64.3609 622.283 64.3609H616.76C612.068 64.3609 608.263 68.165 608.263 72.8577Z" fill="#FFD65B"/>
<path d="M669.232 120.758C664.246 120.758 660.204 116.716 660.204 111.731V55.5454C660.204 50.5595 664.246 46.5176 669.232 46.5176C674.218 46.5176 678.26 50.5595 678.26 55.5454V111.73C678.26 116.716 674.218 120.758 669.232 120.758Z" fill="#FFD65B"/>
<path d="M726.595 70.3115C726.595 67.8463 728.593 65.8478 731.058 65.8478H735.569C740.526 65.8478 744.544 69.8659 744.544 74.8225V111.784C744.544 116.74 740.526 120.758 735.569 120.758H728.132C727.283 120.758 726.595 120.07 726.595 119.221C726.595 117.731 724.488 116.96 723.315 117.877C719.947 120.511 715.481 122.033 710.451 122.033C698.661 122.033 690.271 113.217 690.271 100.791V74.4508C690.271 69.6995 694.123 65.8478 698.874 65.8478C703.625 65.8478 707.477 69.6995 707.477 74.4508V96.7549C707.477 102.809 711.3 107.057 716.823 107.057C722.289 107.057 726.402 103.001 726.487 97.6671C726.488 97.6362 726.532 97.6284 726.542 97.6577C726.551 97.687 726.595 97.68 726.595 97.6491V70.3115Z" fill="#FFD65B"/>
<path d="M777.904 122.033C770.885 122.033 763.681 120.255 757.691 117.12C754.534 115.467 753.847 111.451 755.733 108.428C757.85 105.033 762.39 104.175 766.069 105.748C769.942 107.403 774.218 108.438 778.329 108.438C782.259 108.438 784.489 107.163 784.489 105.039C784.489 102.384 780.878 101.322 775.461 100.047C764.84 97.6046 754.963 94.8431 754.856 82.9476C754.856 72.4328 763.459 64.5733 777.054 64.5733C782.991 64.5733 788.815 66.0843 793.918 68.4969C797.117 70.0092 798.031 73.9599 796.305 77.0489C794.392 80.4749 789.994 81.5072 786.359 80.0306C783.213 78.7533 779.971 77.9557 777.054 77.9557C773.762 77.9557 771.425 79.4427 771.425 81.142C771.425 83.5849 773.762 84.1159 780.241 85.8153C790.012 88.1519 800.952 91.3382 800.952 103.871C800.952 114.917 792.03 122.033 777.904 122.033Z" fill="#FFD65B"/>
<path d="M835.865 34.7973H847.658V51.3008H835.865C836.173 55.4501 836.603 63.0111 835.865 60.0605C835.128 57.1098 831.716 52.2229 824.801 51.7618H805.711V34.8909H817.33V20.332H835.865V34.7973Z" fill="#FFD65B"/>
<path d="M174.49 232.391H169.881V202.749C169.881 200.416 169.957 198.084 170.109 195.751C169.711 196.168 169.322 196.538 168.942 196.86C168.582 197.183 166.268 199.079 162.001 202.55L159.498 199.307L170.507 190.801H174.49V232.391ZM201.579 200.416C203.912 200.416 205.078 201.706 205.078 204.285C205.078 205.499 204.765 206.437 204.139 207.101C203.533 207.765 202.698 208.097 201.636 208.097C200.574 208.097 199.74 207.784 199.133 207.158C198.526 206.532 198.222 205.575 198.222 204.285C198.222 201.706 199.341 200.416 201.579 200.416ZM198.222 229.432C198.222 228.143 198.507 227.166 199.076 226.502C199.664 225.838 200.498 225.506 201.579 225.506C202.679 225.506 203.533 225.838 204.139 226.502C204.765 227.166 205.078 228.124 205.078 229.375C205.078 230.608 204.765 231.556 204.139 232.22C203.533 232.884 202.698 233.216 201.636 233.216C200.574 233.216 199.74 232.903 199.133 232.277C198.526 231.651 198.222 230.703 198.222 229.432ZM236.179 232.391H231.57V202.749C231.57 200.416 231.646 198.084 231.798 195.751C231.4 196.168 231.011 196.538 230.632 196.86C230.271 197.183 227.958 199.079 223.69 202.55L221.187 199.307L232.196 190.801H236.179V232.391ZM280.686 211.567C280.686 204.759 282.355 199.487 285.692 195.751C289.03 192.015 293.724 190.147 299.774 190.147C305.842 190.147 310.555 192.043 313.912 195.836C317.269 199.629 318.947 204.863 318.947 211.539C318.947 218.215 317.259 223.458 313.883 227.27C310.527 231.063 305.814 232.96 299.745 232.96C293.696 232.96 289.002 231.092 285.664 227.356C282.345 223.619 280.686 218.357 280.686 211.567ZM313.827 211.596C313.827 205.963 312.651 201.706 310.299 198.823C307.966 195.922 304.496 194.471 299.888 194.471C295.298 194.471 291.799 195.931 289.391 198.852C287.001 201.753 285.806 206.001 285.806 211.596C285.806 217.171 287.001 221.42 289.391 224.34C291.799 227.261 295.298 228.721 299.888 228.721C304.477 228.721 307.948 227.27 310.299 224.369C312.651 221.467 313.827 217.209 313.827 211.596ZM348.682 200.644C352.475 200.644 355.31 201.564 357.188 203.403C359.065 205.243 360.004 208.125 360.004 212.051V232.391H355.282V212.222C355.282 209.661 354.694 207.765 353.518 206.532C352.361 205.3 350.56 204.683 348.113 204.683C344.832 204.683 342.433 205.565 340.916 207.329C339.418 209.093 338.669 211.994 338.669 216.034V232.391H333.947V201.213H337.787L338.555 205.48H338.783C339.75 203.944 341.096 202.758 342.822 201.924C344.567 201.07 346.52 200.644 348.682 200.644ZM380.864 232.391H376.142V188.127H380.864V232.391ZM396.887 192.764C396.887 191.721 397.143 190.943 397.655 190.431C398.167 189.9 398.831 189.635 399.647 189.635C400.462 189.635 401.135 189.9 401.666 190.431C402.197 190.962 402.463 191.74 402.463 192.764C402.463 193.788 402.197 194.575 401.666 195.125C401.135 195.656 400.462 195.922 399.647 195.922C398.831 195.922 398.167 195.656 397.655 195.125C397.143 194.575 396.887 193.788 396.887 192.764ZM402.008 232.391H397.286V201.213H402.008V232.391ZM433.165 200.644C436.958 200.644 439.793 201.564 441.671 203.403C443.548 205.243 444.487 208.125 444.487 212.051V232.391H439.765V212.222C439.765 209.661 439.177 207.765 438.001 206.532C436.844 205.3 435.043 204.683 432.596 204.683C429.315 204.683 426.916 205.565 425.399 207.329C423.901 209.093 423.152 211.994 423.152 216.034V232.391H418.43V201.213H422.27L423.038 205.48H423.266C424.233 203.944 425.579 202.758 427.305 201.924C429.05 201.07 431.003 200.644 433.165 200.644ZM473.796 232.96C469.187 232.96 465.546 231.556 462.872 228.749C460.217 225.924 458.889 222.007 458.889 217.001C458.889 211.994 460.122 208.021 462.587 205.081C465.072 202.123 468.334 200.644 472.373 200.644C476.432 200.644 479.589 201.943 481.846 204.541C484.122 207.063 485.26 210.439 485.26 214.668V217.655H463.782C463.877 221.296 464.797 224.075 466.542 225.99C468.286 227.887 470.799 228.835 474.08 228.835C477.361 228.835 480.632 228.133 483.894 226.73V230.94C482.244 231.66 480.661 232.173 479.144 232.476C477.645 232.798 475.863 232.96 473.796 232.96ZM480.196 213.815C480.196 210.856 479.532 208.59 478.205 207.016C476.877 205.423 474.971 204.626 472.487 204.626C470.022 204.626 468.04 205.432 466.542 207.044C465.043 208.656 464.162 210.913 463.896 213.815H480.196ZM547.973 195.097H534.802V232.391H529.966V195.097H516.795V190.801H547.973V195.097ZM585.702 232.391H581.804L581.122 228.209H580.866C579.898 229.745 578.561 230.921 576.855 231.736C575.148 232.552 573.185 232.96 570.966 232.96C567.116 232.96 564.262 232.059 562.403 230.257C560.545 228.436 559.616 225.554 559.616 221.609V201.213H564.395V221.439C564.395 223.999 564.973 225.905 566.13 227.156C567.306 228.389 569.117 229.005 571.563 229.005C574.825 229.005 577.205 228.114 578.704 226.331C580.221 224.53 580.979 221.619 580.979 217.598V201.213H585.702V232.391ZM601.754 192.764C601.754 191.721 602.01 190.943 602.522 190.431C603.034 189.9 603.698 189.635 604.513 189.635C605.329 189.635 606.002 189.9 606.533 190.431C607.064 190.962 607.329 191.74 607.329 192.764C607.329 193.788 607.064 194.575 606.533 195.125C606.002 195.656 605.329 195.922 604.513 195.922C603.698 195.922 603.034 195.656 602.522 195.125C602.01 194.575 601.754 193.788 601.754 192.764ZM606.874 232.391H602.152V201.213H606.874V232.391ZM628.36 201.213H637.406V204.882H628.36V223.231C628.36 225.089 628.796 226.531 629.668 227.555C630.56 228.56 631.773 229.062 633.309 229.062C634.846 229.062 636.287 228.873 637.633 228.493V232.135C637.178 232.362 636.439 232.552 635.415 232.704C634.39 232.874 633.48 232.96 632.684 232.96C626.653 232.96 623.637 229.783 623.637 223.43V204.882H619.171V202.607L623.637 200.644L625.629 193.987H628.36V201.213ZM649.902 192.764C649.902 191.721 650.158 190.943 650.67 190.431C651.182 189.9 651.846 189.635 652.661 189.635C653.477 189.635 654.15 189.9 654.681 190.431C655.212 190.962 655.478 191.74 655.478 192.764C655.478 193.788 655.212 194.575 654.681 195.125C654.15 195.656 653.477 195.922 652.661 195.922C651.846 195.922 651.182 195.656 650.67 195.125C650.158 194.575 649.902 193.788 649.902 192.764ZM655.022 232.391H650.3V201.213H655.022V232.391ZM669.681 216.773C669.681 211.691 670.942 207.737 673.464 204.911C676.005 202.066 679.495 200.644 683.933 200.644C688.389 200.644 691.888 202.095 694.43 204.996C697.028 207.879 698.327 211.833 698.327 216.859C698.327 221.884 697.047 225.829 694.487 228.693C691.926 231.537 688.389 232.96 683.876 232.96C683.8 232.96 683.724 232.96 683.648 232.96C679.533 232.96 676.176 231.499 673.578 228.579C670.98 225.658 669.681 221.856 669.681 217.171C669.681 217.039 669.681 216.906 669.681 216.773ZM683.933 204.683C677.693 204.683 674.574 208.713 674.574 216.773C674.574 220.756 675.37 223.79 676.963 225.876C678.575 227.962 680.917 229.005 683.99 229.005C687.081 229.005 689.423 227.972 691.016 225.905C692.628 223.819 693.434 220.784 693.434 216.802C693.434 212.819 692.628 209.804 691.016 207.756C689.423 205.707 687.062 204.683 683.933 204.683ZM727.806 200.644C731.599 200.644 734.434 201.564 736.312 203.403C738.189 205.243 739.128 208.125 739.128 212.051V232.391H734.406V212.222C734.406 209.661 733.818 207.765 732.642 206.532C731.485 205.3 729.683 204.683 727.237 204.683C723.956 204.683 721.557 205.565 720.04 207.329C718.542 209.093 717.793 211.994 717.793 216.034V232.391H713.07V201.213H716.911L717.679 205.48H717.906C718.874 203.944 720.22 202.758 721.946 201.924C723.691 201.07 725.644 200.644 727.806 200.644Z" fill="black"/>
<defs>
<clipPath id="clip0_7247_2">
<rect width="477.748" height="130.16" fill="white" transform="translate(41.5586 22.6152)"/>
</clipPath>
</defs>
</svg>
